<svg xmlns="http://www.w3.org/2000/svg" fill="none" viewBox="0 0 288 408">
  <g filter="url(#a)">
    <path fill="#fff" d="M4 4h280v400H4z"/>
    <rect width="80" height="64" x="12" y="12" fill="#3D99F5" rx="2"/>
    <path fill="#fff" d="M67.9467 64 79 24h-8.8657l-6.7356 27.563h-.1151L56.2601 24h-8.4627l-7.1386 27.2269h-.1151L34.0384 24H25l10.8806 40h9.1535l6.8508-27.2269H52L58.9659 64h8.9808Z"/>
    <path fill="#317AC4" d="M12 82c0-1.1046.8954-2 2-2h76c1.1046 0 2 .8954 2 2v20c0 1.105-.8954 2-2 2H14c-1.1046 0-2-.895-2-2V82Z"/>
    <path fill="#fff" d="M33.5523 98V87.568h2.944c.8 0 1.52.1013 2.16.304.64.2027 1.1893.5173 1.648.944.4587.416.8107.9493 1.056 1.6.2453.6507.368 1.424.368 2.32 0 .896-.1227 1.6747-.368 2.336-.2453.6613-.592 1.2107-1.04 1.648-.448.4267-.9867.7467-1.616.96-.6187.2133-1.312.32-2.08.32h-3.072Zm2.352-1.904h.448c.448 0 .8533-.0587 1.216-.176.3627-.1173.672-.304.928-.56.256-.2667.4533-.6133.592-1.04.1493-.4267.224-.9547.224-1.584 0-.6187-.0747-1.136-.224-1.552-.1387-.4267-.336-.7627-.592-1.008-.256-.256-.5653-.4373-.928-.544-.3627-.1067-.768-.16-1.216-.16h-.448v6.624Zm12.0443 2.096c-.704 0-1.3494-.1227-1.936-.368-.576-.256-1.072-.6187-1.488-1.088-.416-.4693-.7414-1.04-.976-1.712-.224-.672-.336-1.4347-.336-2.288 0-.8533.112-1.6107.336-2.272.2346-.672.56-1.232.976-1.68.416-.4587.912-.8053 1.488-1.04.5866-.2453 1.232-.368 1.936-.368s1.344.1227 1.92.368c.5866.2347 1.088.5813 1.504 1.04.416.4587.736 1.024.96 1.696.2346.6613.352 1.4133.352 2.256 0 .8533-.1174 1.616-.352 2.288-.224.672-.544 1.2427-.96 1.712-.416.4693-.9174.832-1.504 1.088-.576.2453-1.216.368-1.92.368Zm0-2.032c.7146 0 1.28-.304 1.696-.912.416-.6187.624-1.456.624-2.512 0-1.0453-.208-1.8613-.624-2.448-.416-.5867-.9814-.88-1.696-.88-.7147 0-1.28.2933-1.696.88-.416.5867-.624 1.4027-.624 2.448 0 1.056.208 1.8933.624 2.512.416.608.9813.912 1.696.912Zm11.0495 2.032c-.6614 0-1.2854-.112-1.872-.336-.5867-.2347-1.104-.576-1.552-1.024-.4374-.448-.784-1.0027-1.04-1.664-.256-.672-.384-1.4453-.384-2.32 0-.864.1333-1.632.4-2.304.2666-.6827.624-1.2587 1.072-1.728.448-.4693.9706-.8267 1.568-1.072.5973-.2453 1.2266-.368 1.888-.368.672 0 1.2746.1387 1.808.416.5333.2667.976.5813 1.328.944l-1.248 1.504c-.2667-.2453-.5494-.4427-.848-.592-.288-.16-.6187-.24-.992-.24-.352 0-.688.08-1.008.24-.3094.1493-.5814.368-.816.656-.224.288-.4054.64-.544 1.056-.128.416-.192.8853-.192 1.408 0 1.0773.2293 1.9147.688 2.512.4586.5867 1.072.88 1.84.88.4266 0 .8053-.0907 1.136-.272.3413-.192.64-.4267.896-.704l1.248 1.472c-.8747 1.024-2 1.536-3.376 1.536ZM62.7776 98l2.896-5.36-2.72-5.072h2.624l.912 1.968c.1173.2453.2346.5067.352.784.1173.2667.2506.5653.4.896h.064c.1173-.3307.2293-.6293.336-.896.1173-.2773.2293-.5387.336-.784l.832-1.968h2.512l-2.704 5.184 2.88 5.248h-2.624l-1.04-2.128c-.128-.2773-.256-.5493-.384-.816-.1174-.2773-.2507-.576-.4-.896h-.064c-.1174.32-.2347.6187-.352.896-.1174.2667-.2347.5387-.352.816L65.3056 98h-2.528Z"/>
    <circle cx="144" cy="234" r="90" fill="#ECF5FE"/>
    <path fill="#3D99F5" d="M4 400h280v4H4z"/>
    <path fill="#317AC4" fill-rule="evenodd" d="M148 186h-8v66.466L122.99 236l-4.99 4.831L144 266l26-25.169-4.99-4.831L148 252.466V186Zm-44 72h8v16h64v-16h8v24h-80v-24Z" clip-rule="evenodd"/>
  </g>
  <defs>
    <filter id="a" width="288" height="408" x="0" y="0" color-interpolation-filters="sRGB" filterUnits="userSpaceOnUse">
      <feFlood flood-opacity="0" result="BackgroundImageFix"/>
      <feColorMatrix in="SourceAlpha" result="hardAlpha" values="0 0 0 0 0 0 0 0 0 0 0 0 0 0 0 0 0 0 127 0"/>
      <feOffset/>
      <feGaussianBlur stdDeviation="2"/>
      <feColorMatrix values="0 0 0 0 0.101961 0 0 0 0 0.101961 0 0 0 0 0.101961 0 0 0 0.2 0"/>
      <feBlend in2="BackgroundImageFix" result="effect1_dropShadow_5152_103189"/>
      <feBlend in="SourceGraphic" in2="effect1_dropShadow_5152_103189" result="shape"/>
    </filter>
  </defs>
</svg>
